<svg width="10" height="10" viewBox="0 0 10 10" fill="none" xmlns="http://www.w3.org/2000/svg">
<path d="M6.0387 5.33146L2.24292 9.12722C2.05985 9.31029 1.76306 9.31029 1.58001 9.12722L1.1373 8.68451C0.954541 8.50175 0.95419 8.20556 1.13651 8.02238L4.14474 5L1.13651 1.97763C0.95419 1.79445 0.954541 1.49826 1.1373 1.3155L1.58001 0.872789C1.76308 0.689722 2.05987 0.689722 2.24292 0.872789L6.03868 4.66855C6.22175 4.8516 6.22175 5.14839 6.0387 5.33146Z" fill="currentColor"/>
<path d="M9.62672 5.33146L5.83093 9.12722C5.64787 9.31029 5.35107 9.31029 5.16802 9.12722L4.72531 8.68451C4.54255 8.50175 4.5422 8.20556 4.72453 8.02238L7.73275 5L4.72453 1.97763C4.5422 1.79445 4.54255 1.49826 4.72531 1.3155L5.16802 0.872789C5.35109 0.689722 5.64789 0.689722 5.83093 0.872789L9.6267 4.66855C9.80976 4.8516 9.80976 5.14839 9.62672 5.33146Z" fill="currentColor"/>
</svg>
