<svg width="20" height="20" viewBox="0 0 20 20" fill="none" xmlns="http://www.w3.org/2000/svg">
<rect width="20" height="20" rx="5" fill="#FECC03"/>
<path d="M13.1833 5.30834L15.6889 7.8139C15.7944 7.91945 15.7944 8.09167 15.6889 8.19723L9.62222 14.2639L7.04444 14.55C6.7 14.5889 6.40833 14.2972 6.44722 13.9528L6.73333 11.375L12.8 5.30834C12.9056 5.20279 13.0778 5.20279 13.1833 5.30834ZM17.6833 4.67223L16.3278 3.31667C15.9056 2.89445 15.2194 2.89445 14.7944 3.31667L13.8111 4.30001C13.7056 4.40556 13.7056 4.57779 13.8111 4.68334L16.3167 7.1889C16.4222 7.29445 16.5944 7.29445 16.7 7.1889L17.6833 6.20556C18.1056 5.78056 18.1056 5.09445 17.6833 4.67223ZM12.6667 12.6139V15.4417H3.77778V6.55278H10.1611C10.25 6.55278 10.3333 6.51667 10.3972 6.45556L11.5083 5.34445C11.7194 5.13334 11.5694 4.77501 11.2722 4.77501H3.33333C2.59722 4.77501 2 5.37223 2 6.10834V15.8861C2 16.6222 2.59722 17.2194 3.33333 17.2194H13.1111C13.8472 17.2194 14.4444 16.6222 14.4444 15.8861V11.5028C14.4444 11.2056 14.0861 11.0583 13.875 11.2667L12.7639 12.3778C12.7028 12.4417 12.6667 12.525 12.6667 12.6139Z" fill="#1C1C1C"/>
</svg>
