<svg width="50" height="50" viewBox="0 0 50 50" fill="none" xmlns="http://www.w3.org/2000/svg">
<rect width="50" height="50" rx="25" fill="#434343"/>
<path d="M15 34.8045C15 36.0498 16.0103 37.0602 17.2556 37.0602H33.797C35.0423 37.0602 36.0526 36.0498 36.0526 34.8045V22.0226H15V34.8045ZM30.0376 25.594C30.0376 25.2838 30.2914 25.0301 30.6015 25.0301H32.4812C32.7914 25.0301 33.0451 25.2838 33.0451 25.594V27.4737C33.0451 27.7838 32.7914 28.0376 32.4812 28.0376H30.6015C30.2914 28.0376 30.0376 27.7838 30.0376 27.4737V25.594ZM30.0376 31.609C30.0376 31.2989 30.2914 31.0451 30.6015 31.0451H32.4812C32.7914 31.0451 33.0451 31.2989 33.0451 31.609V33.4887C33.0451 33.7989 32.7914 34.0526 32.4812 34.0526H30.6015C30.2914 34.0526 30.0376 33.7989 30.0376 33.4887V31.609ZM24.0226 25.594C24.0226 25.2838 24.2763 25.0301 24.5865 25.0301H26.4662C26.7763 25.0301 27.0301 25.2838 27.0301 25.594V27.4737C27.0301 27.7838 26.7763 28.0376 26.4662 28.0376H24.5865C24.2763 28.0376 24.0226 27.7838 24.0226 27.4737V25.594ZM24.0226 31.609C24.0226 31.2989 24.2763 31.0451 24.5865 31.0451H26.4662C26.7763 31.0451 27.0301 31.2989 27.0301 31.609V33.4887C27.0301 33.7989 26.7763 34.0526 26.4662 34.0526H24.5865C24.2763 34.0526 24.0226 33.7989 24.0226 33.4887V31.609ZM18.0075 25.594C18.0075 25.2838 18.2613 25.0301 18.5714 25.0301H20.4511C20.7613 25.0301 21.015 25.2838 21.015 25.594V27.4737C21.015 27.7838 20.7613 28.0376 20.4511 28.0376H18.5714C18.2613 28.0376 18.0075 27.7838 18.0075 27.4737V25.594ZM18.0075 31.609C18.0075 31.2989 18.2613 31.0451 18.5714 31.0451H20.4511C20.7613 31.0451 21.015 31.2989 21.015 31.609V33.4887C21.015 33.7989 20.7613 34.0526 20.4511 34.0526H18.5714C18.2613 34.0526 18.0075 33.7989 18.0075 33.4887V31.609ZM33.797 16.0075H31.5414V13.7519C31.5414 13.3383 31.203 13 30.7895 13H29.2857C28.8722 13 28.5338 13.3383 28.5338 13.7519V16.0075H22.5188V13.7519C22.5188 13.3383 22.1805 13 21.7669 13H20.2632C19.8496 13 19.5113 13.3383 19.5113 13.7519V16.0075H17.2556C16.0103 16.0075 15 17.0179 15 18.2632V20.5188H36.0526V18.2632C36.0526 17.0179 35.0423 16.0075 33.797 16.0075Z" fill="#DDDDDD"/>
</svg>
