<svg width="25" height="29" viewBox="0 0 25 29" fill="none" xmlns="http://www.w3.org/2000/svg">
<path d="M2 23.8045C2 25.0498 3.01034 26.0602 4.25564 26.0602H20.797C22.0423 26.0602 23.0526 25.0498 23.0526 23.8045V11.0226H2V23.8045ZM17.0376 14.594C17.0376 14.2838 17.2914 14.0301 17.6015 14.0301H19.4812C19.7914 14.0301 20.0451 14.2838 20.0451 14.594V16.4737C20.0451 16.7838 19.7914 17.0376 19.4812 17.0376H17.6015C17.2914 17.0376 17.0376 16.7838 17.0376 16.4737V14.594ZM17.0376 20.609C17.0376 20.2989 17.2914 20.0451 17.6015 20.0451H19.4812C19.7914 20.0451 20.0451 20.2989 20.0451 20.609V22.4887C20.0451 22.7989 19.7914 23.0526 19.4812 23.0526H17.6015C17.2914 23.0526 17.0376 22.7989 17.0376 22.4887V20.609ZM11.0226 14.594C11.0226 14.2838 11.2763 14.0301 11.5865 14.0301H13.4662C13.7763 14.0301 14.0301 14.2838 14.0301 14.594V16.4737C14.0301 16.7838 13.7763 17.0376 13.4662 17.0376H11.5865C11.2763 17.0376 11.0226 16.7838 11.0226 16.4737V14.594ZM11.0226 20.609C11.0226 20.2989 11.2763 20.0451 11.5865 20.0451H13.4662C13.7763 20.0451 14.0301 20.2989 14.0301 20.609V22.4887C14.0301 22.7989 13.7763 23.0526 13.4662 23.0526H11.5865C11.2763 23.0526 11.0226 22.7989 11.0226 22.4887V20.609ZM5.00752 14.594C5.00752 14.2838 5.26128 14.0301 5.57143 14.0301H7.45113C7.76128 14.0301 8.01504 14.2838 8.01504 14.594V16.4737C8.01504 16.7838 7.76128 17.0376 7.45113 17.0376H5.57143C5.26128 17.0376 5.00752 16.7838 5.00752 16.4737V14.594ZM5.00752 20.609C5.00752 20.2989 5.26128 20.0451 5.57143 20.0451H7.45113C7.76128 20.0451 8.01504 20.2989 8.01504 20.609V22.4887C8.01504 22.7989 7.76128 23.0526 7.45113 23.0526H5.57143C5.26128 23.0526 5.00752 22.7989 5.00752 22.4887V20.609ZM20.797 5.00752H18.5414V2.75188C18.5414 2.33835 18.203 2 17.7895 2H16.2857C15.8722 2 15.5338 2.33835 15.5338 2.75188V5.00752H9.5188V2.75188C9.5188 2.33835 9.18045 2 8.76692 2H7.26316C6.84962 2 6.51128 2.33835 6.51128 2.75188V5.00752H4.25564C3.01034 5.00752 2 6.01786 2 7.26316V9.5188H23.0526V7.26316C23.0526 6.01786 22.0423 5.00752 20.797 5.00752Z" fill="#DDDDDD"/>
</svg>
