<svg width="16" height="16" viewBox="0 0 16 16" fill="none" xmlns="http://www.w3.org/2000/svg">
<path d="M1.40094 11H9.59906C9.65173 11 9.70388 10.9897 9.75254 10.9696C9.80121 10.9494 9.84542 10.9199 9.88266 10.8827C9.9199 10.8454 9.94943 10.8012 9.96956 10.7525C9.9897 10.7039 10 10.6517 10 10.5991V9.40094C10 9.34827 9.9897 9.29612 9.96956 9.24746C9.94943 9.19879 9.9199 9.15458 9.88266 9.11734C9.84542 9.0801 9.80121 9.05057 9.75254 9.03044C9.70388 9.0103 9.65173 8.99996 9.59906 9H1.40094C1.34827 8.99996 1.29612 9.0103 1.24746 9.03044C1.19879 9.05057 1.15458 9.0801 1.11734 9.11734C1.0801 9.15458 1.05057 9.19879 1.03044 9.24746C1.0103 9.29612 0.999959 9.34827 1 9.40094V10.5991C0.999959 10.6517 1.0103 10.7039 1.03044 10.7525C1.05057 10.8012 1.0801 10.8454 1.11734 10.8827C1.15458 10.9199 1.19879 10.9494 1.24746 10.9696C1.29612 10.9897 1.34827 11 1.40094 11ZM1.40094 3H9.59906C9.65173 3.00004 9.70388 2.9897 9.75254 2.96956C9.80121 2.94943 9.84542 2.9199 9.88266 2.88266C9.9199 2.84542 9.94943 2.80121 9.96956 2.75254C9.9897 2.70388 10 2.65173 10 2.59906V1.40094C10 1.34827 9.9897 1.29612 9.96956 1.24746C9.94943 1.19879 9.9199 1.15458 9.88266 1.11734C9.84542 1.0801 9.80121 1.05057 9.75254 1.03044C9.70388 1.0103 9.65173 0.999959 9.59906 1H1.40094C1.34827 0.999959 1.29612 1.0103 1.24746 1.03044C1.19879 1.05057 1.15458 1.0801 1.11734 1.11734C1.0801 1.15458 1.05057 1.19879 1.03044 1.24746C1.0103 1.29612 0.999959 1.34827 1 1.40094V2.59906C0.999959 2.65173 1.0103 2.70388 1.03044 2.75254C1.05057 2.80121 1.0801 2.84542 1.11734 2.88266C1.15458 2.9199 1.19879 2.94943 1.24746 2.96956C1.29612 2.9897 1.34827 3.00004 1.40094 3ZM14.5 5H1.5C1.36739 5 1.24021 5.05268 1.14645 5.14645C1.05268 5.24021 1 5.36739 1 5.5V6.5C1 6.63261 1.05268 6.75979 1.14645 6.85355C1.24021 6.94732 1.36739 7 1.5 7H14.5C14.6326 7 14.7598 6.94732 14.8536 6.85355C14.9473 6.75979 15 6.63261 15 6.5V5.5C15 5.36739 14.9473 5.24021 14.8536 5.14645C14.7598 5.05268 14.6326 5 14.5 5ZM14.5 13H1.5C1.36739 13 1.24021 13.0527 1.14645 13.1464C1.05268 13.2402 1 13.3674 1 13.5V14.5C1 14.6326 1.05268 14.7598 1.14645 14.8536C1.24021 14.9473 1.36739 15 1.5 15H14.5C14.6326 15 14.7598 14.9473 14.8536 14.8536C14.9473 14.7598 15 14.6326 15 14.5V13.5C15 13.3674 14.9473 13.2402 14.8536 13.1464C14.7598 13.0527 14.6326 13 14.5 13Z" fill="#1C1C1C"/>
</svg>
