<svg width="21" height="21" viewBox="0 0 21 21" fill="none" xmlns="http://www.w3.org/2000/svg">
  <g clip-path="url(#clip0_710_2373)">
  <path d="M19.0312 1.31251H14.1094L13.7238 0.545515C13.6422 0.38154 13.5163 0.243608 13.3606 0.147236C13.2048 0.0508642 13.0252 -0.000124194 12.842 7.19115e-06H8.15391C7.97113 -0.000695429 7.79186 0.0501029 7.63662 0.146582C7.48138 0.243061 7.35646 0.381319 7.27617 0.545515L6.89062 1.31251H1.96875C1.7947 1.31251 1.62778 1.38165 1.50471 1.50472C1.38164 1.62779 1.3125 1.79471 1.3125 1.96876L1.3125 3.28126C1.3125 3.45531 1.38164 3.62223 1.50471 3.7453C1.62778 3.86837 1.7947 3.93751 1.96875 3.93751H19.0312C19.2053 3.93751 19.3722 3.86837 19.4953 3.7453C19.6184 3.62223 19.6875 3.45531 19.6875 3.28126V1.96876C19.6875 1.79471 19.6184 1.62779 19.4953 1.50472C19.3722 1.38165 19.2053 1.31251 19.0312 1.31251ZM3.49453 19.1543C3.52583 19.6541 3.74643 20.1232 4.11143 20.4661C4.47643 20.809 4.95838 20.9999 5.45918 21H15.5408C16.0416 20.9999 16.5236 20.809 16.8886 20.4661C17.2536 20.1232 17.4742 19.6541 17.5055 19.1543L18.375 5.25001H2.625L3.49453 19.1543Z" fill="#EFA392"/>
  </g>
  <defs>
  <clipPath id="clip0_710_2373">
  <rect width="21" height="21" fill="white"/>
  </clipPath>
  </defs>
</svg>
